<?xml version="1.0" encoding="UTF-8" standalone="no"?>
<!-- Created with Inkscape (http://www.inkscape.org/) -->

<svg
   width="192px"
   height="64px"
   viewBox="0 0 192 64"
   version="1.1"
   id="SVGRoot"
   sodipodi:docname="button.svg"
   inkscape:version="1.1.2 (0a00cf5339, 2022-02-04)"
   xmlns:inkscape="http://www.inkscape.org/namespaces/inkscape"
   xmlns:sodipodi="http://sodipodi.sourceforge.net/DTD/sodipodi-0.dtd"
   xmlns="http://www.w3.org/2000/svg"
   xmlns:svg="http://www.w3.org/2000/svg">
  <sodipodi:namedview
     id="namedview424"
     pagecolor="#505050"
     bordercolor="#eeeeee"
     borderopacity="1"
     inkscape:pageshadow="0"
     inkscape:pageopacity="0"
     inkscape:pagecheckerboard="0"
     inkscape:document-units="px"
     showgrid="true"
     inkscape:zoom="4"
     inkscape:cx="98.75"
     inkscape:cy="44.25"
     inkscape:window-width="1366"
     inkscape:window-height="713"
     inkscape:window-x="0"
     inkscape:window-y="0"
     inkscape:window-maximized="1"
     inkscape:current-layer="layer1"
     showguides="false">
    <inkscape:grid
       type="xygrid"
       id="grid452" />
  </sodipodi:namedview>
  <defs
     id="defs419" />
  <g
     inkscape:label="Layer 1"
     inkscape:groupmode="layer"
     id="layer1">
    <path
       style="font-variation-settings:normal;opacity:1;vector-effect:none;fill:#a0a0a0;fill-opacity:1;stroke:none;stroke-width:1px;stroke-linecap:butt;stroke-linejoin:miter;stroke-miterlimit:4;stroke-dasharray:none;stroke-dashoffset:0;stroke-opacity:1;-inkscape-stroke:none;stop-color:#000000;stop-opacity:1"
       d="M 24,8 C 8,8 8,24 8,24 c 0,0 0,0 0,16 0,16 16,16 16,16 0,0 128,0 144,0 16,0 16,-16 16,-16 0,0 0,0 0,-16 C 184,8 168,8 168,8 Z"
       id="path1912" />
    <path
       style="font-variation-settings:normal;vector-effect:none;fill:#666666;fill-opacity:1;stroke:none;stroke-width:1px;stroke-linecap:butt;stroke-linejoin:miter;stroke-miterlimit:4;stroke-dasharray:none;stroke-dashoffset:0;stroke-opacity:1;-inkscape-stroke:none;stop-color:#000000"
       d="M 24,48 C 8,48 8,32 8,32 v 8 c 0,16 16,16 16,16 h 144 c 16,0 16,-16 16,-16 v -8 c 0,16 -16,16 -16,16 z"
       id="path1912-3"
       sodipodi:nodetypes="ccscscccc" />
  </g>
</svg>
